# Blender 4.1.1
# www.blender.org
mtllib pl_waterfall.mtl
o dst_waterfall
v 0.500000 1.000000 -0.500000
v -0.500000 1.000000 -0.180001
v -0.500000 0.951283 -0.057542
v -0.500000 0.812549 0.046274
v -0.500000 0.484858 0.133851
v 0.500000 1.000000 -0.180000
v 0.500000 0.951283 -0.057542
v 0.500000 0.812549 0.046274
v 0.500000 0.484858 0.133851
v -0.500000 -1.639999 0.140000
v 0.500000 -1.639999 0.140000
v -0.500000 1.000000 -0.500000
vn -0.0000 0.7701 0.6379
vn -0.0000 0.4473 0.8944
vn -0.0000 0.9995 0.0324
vn -0.0000 1.0000 -0.0000
vn -0.0000 0.0989 0.9951
vn -0.0000 -0.0000 1.0000
vt 2.000000 0.749999
vt 1.000000 0.749999
vt 1.000000 0.499998
vt 2.000000 0.499998
vt 2.000000 1.000000
vt 1.999950 1.399810
vt 1.000050 1.399810
vt 1.000000 1.000000
vt 1.000000 0.124999
vt 1.000000 -2.000000
vt 2.000000 -2.000000
vt 2.000000 0.124998
s 1
usemtl blinn1SG
f 7/1/1 3/2/1 4/3/2 8/4/2
f 6/5/3 1/6/4 12/7/4 2/8/3
f 5/9/5 10/10/6 11/11/6 9/12/5
f 8/4/2 4/3/2 5/9/5 9/12/5
f 6/5/3 2/8/3 3/2/1 7/1/1
